<?xml version="1.0" encoding="UTF-8"?><svg id="Layer_1" xmlns="http://www.w3.org/2000/svg" viewBox="0 0 148 148"><defs><style>.cls-1{fill-rule:evenodd;}.cls-1,.cls-2{fill:#3d3d3d;}.cls-3{fill:#f7f7f7;}</style></defs><rect class="cls-3" x="6.84" y="6.84" width="134.32" height="134.32" rx="67.16" ry="67.16"/><path class="cls-1" d="M109.59,29.58h-50.36c-2.36.01-4.61.95-6.28,2.61-1.68,1.66-2.61,3.92-2.61,6.28v50.36h-11.86c-2.36.01-4.61.95-6.28,2.61-1.68,1.66-2.61,3.92-2.61,6.28v7.41c0,3.54,1.41,6.93,3.92,9.42,1.99,2.35,4.87,3.77,7.95,3.92h56.28c5.5,0,10.77-2.2,14.66-6.09s6.08-9.16,6.09-14.66v-59.24c0-4.91-3.98-8.89-8.89-8.89h0ZM35.5,105.14v-7.41c.02-1.63,1.34-2.95,2.97-2.95h11.86v10.36c.01,1.97-.77,3.86-2.16,5.25-2.94,2.77-7.53,2.77-10.47,0-1.41-1.38-2.2-3.27-2.2-5.25h0ZM112.53,97.72h0c0,3.93-1.57,7.69-4.34,10.46-2.78,2.77-6.54,4.34-10.46,4.34h-43.73c1.47-2.19,2.25-4.78,2.25-7.42V38.48c0-1.64,1.33-2.97,2.97-2.97h50.36c.79,0,1.55.31,2.1.87.56.55.87,1.31.87,2.1l-.03,59.25h0Z"/><path class="cls-1" d="M95.47,60.75c-1.06-1.84-3.02-2.97-5.14-2.97h-11.89c-2.12,0-4.07,1.12-5.14,2.95l-5.95,10.33c-1.05,1.83-1.05,4.09,0,5.92l5.95,10.31c1.07,1.82,3.02,2.95,5.14,2.95h11.92c2.12,0,4.08-1.14,5.14-2.97l5.95-10.31c1.05-1.83,1.05-4.09,0-5.92l-5.97-10.28h0ZM90.33,84.34h-11.89l-5.95-10.31,5.95-10.31h11.92l5.89,10.31-5.92,10.31Z"/><path class="cls-2" d="M88.22,74.03c0,5.11-7.67,5.11-7.67,0s7.67-5.11,7.67,0"/></svg>