<?xml version="1.0" encoding="UTF-8"?><svg id="Layer_1" xmlns="http://www.w3.org/2000/svg" viewBox="0 0 100 100"><defs><style>.cls-1{fill-rule:evenodd;}</style></defs><path class="cls-1" d="M85.56,5.55h-50.36c-2.36.01-4.61.95-6.28,2.61-1.68,1.66-2.61,3.92-2.61,6.28v50.36h-11.86c-2.36.01-4.61.95-6.28,2.61-1.68,1.66-2.61,3.92-2.61,6.28v7.41c0,3.54,1.41,6.93,3.92,9.42,1.99,2.35,4.87,3.77,7.95,3.92h56.28c5.5,0,10.77-2.2,14.66-6.09s6.08-9.16,6.09-14.66V14.45c0-4.91-3.98-8.89-8.89-8.89h0ZM11.47,81.11v-7.41c.02-1.63,1.34-2.95,2.97-2.95h11.86v10.36c.01,1.97-.77,3.86-2.16,5.25-2.94,2.77-7.53,2.77-10.47,0-1.41-1.38-2.2-3.27-2.2-5.25h0ZM88.5,73.69h0c0,3.93-1.57,7.69-4.34,10.46-2.78,2.77-6.54,4.34-10.46,4.34H29.97c1.47-2.19,2.25-4.78,2.25-7.42V14.45c0-1.64,1.33-2.97,2.97-2.97h50.36c.79,0,1.55.31,2.1.87.56.55.87,1.31.87,2.1l-.03,59.25Z"/><path class="cls-1" d="M71.44,36.72c-1.06-1.84-3.02-2.97-5.14-2.97h-11.89c-2.12,0-4.07,1.12-5.14,2.95l-5.95,10.33c-1.05,1.83-1.05,4.09,0,5.92l5.95,10.31c1.07,1.82,3.02,2.95,5.14,2.95h11.92,0c2.12,0,4.08-1.14,5.14-2.97l5.95-10.31c1.05-1.83,1.05-4.09,0-5.92l-5.97-10.28ZM66.3,60.31h-11.89l-5.95-10.31,5.95-10.31h11.92l5.89,10.31-5.92,10.31Z"/><path d="M64.19,50c0,5.11-7.67,5.11-7.67,0s7.67-5.11,7.67,0"/></svg>